<svg width="23" height="25" viewBox="0 0 23 25" fill="none" xmlns="http://www.w3.org/2000/svg">
<path d="M16.7985 6.24477H20.4039C20.6219 6.24499 20.8321 6.32613 20.9938 6.47249C21.1554 6.61885 21.257 6.81999 21.2788 7.03696L21.8157 12.4062H20.0447L19.6046 8.00519H16.7985V10.6458C16.7985 10.8793 16.7058 11.1031 16.5407 11.2682C16.3757 11.4333 16.1518 11.526 15.9183 11.526C15.6849 11.526 15.461 11.4333 15.2959 11.2682C15.1309 11.1031 15.0381 10.8793 15.0381 10.6458V8.00519H7.99646V10.6458C7.99646 10.8793 7.90372 11.1031 7.73865 11.2682C7.57358 11.4333 7.34969 11.526 7.11625 11.526C6.8828 11.526 6.65892 11.4333 6.49385 11.2682C6.32878 11.1031 6.23604 10.8793 6.23604 10.6458V8.00519H3.42818L2.01984 22.0885H11.5173V23.8489H1.04633C0.923391 23.8488 0.801839 23.8229 0.689507 23.773C0.577176 23.723 0.476555 23.6501 0.394129 23.5589C0.311703 23.4677 0.249299 23.3602 0.210938 23.2434C0.172578 23.1266 0.15911 23.003 0.171404 22.8807L1.75578 7.03696C1.77759 6.81999 1.87915 6.61885 2.04079 6.47249C2.20244 6.32613 2.41265 6.24499 2.63071 6.24477H6.23604V5.63039C6.23604 2.57782 8.58796 0.083313 11.5173 0.083313C14.4466 0.083313 16.7985 2.57782 16.7985 5.63039V6.24653V6.24477ZM15.0381 6.24477V5.63039C15.0381 3.52845 13.4502 1.84373 11.5173 1.84373C9.58435 1.84373 7.99646 3.52845 7.99646 5.63039V6.24653H15.0381V6.24477ZM20.5782 19.3423C20.6585 19.2549 20.7556 19.1847 20.8637 19.1358C20.9718 19.0869 21.0887 19.0604 21.2074 19.0579C21.326 19.0554 21.4439 19.0768 21.554 19.121C21.6642 19.1652 21.7642 19.2312 21.8482 19.3151C21.9321 19.3989 21.9983 19.4989 22.0426 19.6089C22.087 19.719 22.1086 19.8369 22.1063 19.9555C22.1039 20.0741 22.0775 20.1911 22.0288 20.2993C21.9801 20.4075 21.91 20.5047 21.8228 20.5851L18.3019 24.106C18.1369 24.271 17.913 24.3637 17.6796 24.3637C17.4462 24.3637 17.2224 24.271 17.0573 24.106L13.5365 20.5851C13.4524 20.5039 13.3854 20.4068 13.3392 20.2994C13.2931 20.192 13.2688 20.0765 13.2678 19.9597C13.2668 19.8428 13.2891 19.7269 13.3333 19.6187C13.3776 19.5105 13.4429 19.4122 13.5256 19.3296C13.6082 19.247 13.7065 19.1816 13.8147 19.1373C13.9228 19.0931 14.0388 19.0708 14.1556 19.0718C14.2725 19.0728 14.388 19.0971 14.4954 19.1433C14.6028 19.1894 14.6999 19.2564 14.7811 19.3405L16.7985 21.3597V15.0469C16.7985 14.8134 16.8913 14.5895 17.0563 14.4245C17.2214 14.2594 17.4453 14.1666 17.6787 14.1666C17.9122 14.1666 18.1361 14.2594 18.3011 14.4245C18.4662 14.5895 18.559 14.8134 18.559 15.0469V21.3597L20.5782 19.3405V19.3423Z" fill="#F2C8ED"/>
</svg>
