<svg width="20" height="25" viewBox="0 0 20 25" fill="none" xmlns="http://www.w3.org/2000/svg">
<path d="M14.9967 2.69315H17.7625C18.0589 2.69315 18.3431 2.81204 18.5527 3.02367C18.7623 3.2353 18.88 3.52233 18.88 3.82163V22.4415C18.88 22.7408 18.7623 23.0279 18.5527 23.2395C18.3431 23.4511 18.0589 23.57 17.7625 23.57H2.1175C1.82112 23.57 1.53688 23.4511 1.32731 23.2395C1.11774 23.0279 1 22.7408 1 22.4415V3.82163C1 3.52233 1.11774 3.2353 1.32731 3.02367C1.53688 2.81204 1.82112 2.69315 2.1175 2.69315H6.02875V4.38587H13.8512V2.69315H14.9967Z" stroke="#A9DFD8" stroke-width="1.5" stroke-linejoin="round"/>
<path d="M11.6167 9.4636L7.14666 13.9781H12.7364L8.26416 18.492M6.02916 1H13.8517V4.38544H6.02916V1Z" stroke="#A9DFD8" stroke-width="1.5" stroke-linecap="round" stroke-linejoin="round"/>
</svg>
