<svg width="23" height="24" viewBox="0 0 23 24" fill="none" xmlns="http://www.w3.org/2000/svg">
<path d="M10.8462 12C13.8801 12 16.3396 9.57487 16.3396 6.58332C16.3396 3.59178 13.8801 1.16666 10.8462 1.16666C7.8122 1.16666 5.3527 3.59178 5.3527 6.58332C5.3527 9.57487 7.8122 12 10.8462 12Z" stroke="#20AEF3" stroke-width="1.5"/>
<path d="M15.2412 16.3333H21.8333M16.3399 22.8333H3.44786C3.13625 22.8334 2.82819 22.7681 2.54413 22.6418C2.26006 22.5155 2.00649 22.3311 1.80024 22.1008C1.59398 21.8704 1.43977 21.5995 1.34783 21.3059C1.25589 21.0124 1.22832 20.7029 1.26696 20.398L1.69545 17.0136C1.7951 16.2274 2.18262 15.5041 2.78516 14.9798C3.3877 14.4555 4.16374 14.1663 4.96735 14.1666H5.35299L16.3399 22.8333ZM18.5373 13.0833V19.5833V13.0833Z" stroke="#20AEF3" stroke-width="1.5" stroke-linecap="round" stroke-linejoin="round"/>
</svg>
